<svg width="16" height="16" viewBox="0 0 16 16" fill="none" xmlns="http://www.w3.org/2000/svg">
<path d="M16 4C16 4.5625 15.5312 5 15 5V11C15.5312 11 16 11.4688 16 12V15C16 15.5625 15.5312 16 15 16H12C11.4375 16 11 15.5625 11 15H5C5 15.5625 4.53125 16 4 16H1C0.4375 16 0 15.5625 0 15V12C0 11.4688 0.4375 11 1 11V5C0.4375 5 0 4.5625 0 4V1C0 0.46875 0.4375 0 1 0H4C4.53125 0 5 0.46875 5 1H11C11 0.46875 11.4375 0 12 0H15C15.5312 0 16 0.46875 16 1V4ZM13 2V3H14V2H13ZM2 2V3H3V2H2ZM3 14V13H2V14H3ZM14 14V13H13V14H14ZM13 11V5H12C11.4375 5 11 4.5625 11 4V3H5V4C5 4.5625 4.53125 5 4 5H3V11H4C4.53125 11 5 11.4688 5 12V13H11V12C11 11.4688 11.4375 11 12 11H13Z" fill="#F37021"/>
</svg>
