<svg width="13" height="13" viewBox="0 0 13 13" fill="none" xmlns="http://www.w3.org/2000/svg">
<path d="M5.975 0.0999998C6.25 -1.65775e-07 6.55 -1.65775e-07 6.8 0.0999998L12 2.05C12.475 2.225 12.775 2.675 12.775 3.175V8.8C12.775 9.25 12.525 9.675 12.125 9.875L6.925 12.475C6.575 12.65 6.2 12.65 5.85 12.475L0.65 9.875C0.25 9.675 0 9.25 0 8.8V3.175C0 2.675 0.3 2.225 0.775 2.05L5.975 0.0999998ZM6.4 1.65L1.6 3.45V3.475L6.4 5.425L11.2 3.475V3.45L6.4 1.65ZM7.2 10.55L11.2 8.55V5.2L7.2 6.825V10.55Z" fill="white"/>
</svg>
