<svg width="14" height="13" viewBox="0 0 14 13" fill="none" xmlns="http://www.w3.org/2000/svg">
<path d="M0.425 3.6998C-1.86265e-09 3.4998 -1.86265e-09 2.8748 0.425 2.6748L6.25 0.0498045C6.325 -0.000195479 6.425 -0.000195479 6.525 -0.000195479C6.6 -0.000195479 6.7 -0.000195479 6.775 0.0498045L12.6 2.6748C13.025 2.8748 13.025 3.4998 12.6 3.6998L6.775 6.3248C6.6 6.3998 6.425 6.3998 6.25 6.3248L0.425 3.6998ZM12.6 5.8998C13.025 6.0748 13.025 6.6998 12.6 6.8998L6.775 9.5248C6.6 9.5998 6.425 9.5998 6.25 9.5248L0.425 6.8998C-1.86265e-09 6.6998 -1.86265e-09 6.0748 0.425 5.8998L1.875 5.2248L5.925 7.0748C6.1 7.1498 6.3 7.1998 6.525 7.1998C6.725 7.1998 6.925 7.1498 7.1 7.0748L11.15 5.2248L12.6 5.8998ZM12.6 9.0998C13.025 9.2748 13.025 9.8998 12.6 10.0998L6.775 12.7248C6.6 12.7998 6.425 12.7998 6.25 12.7248L0.425 10.0998C-1.86265e-09 9.8998 -1.86265e-09 9.2748 0.425 9.0998L1.875 8.4248L5.925 10.2748C6.1 10.3498 6.3 10.3998 6.525 10.3998C6.725 10.3998 6.925 10.3498 7.1 10.2748L11.15 8.4248L12.6 9.0998Z" fill="white"/>
</svg>
