<svg width="15" height="13" viewBox="0 0 15 13" fill="none" xmlns="http://www.w3.org/2000/svg">
<path d="M13.775 0.324902C14.25 1.3999 14.525 2.6999 14.525 3.9499C14.525 8.2499 11.75 11.7749 7.825 12.0499C5.8 12.2749 4.275 11.2249 3.45 10.1249C2.175 11.1999 1.7 12.2999 1.65 12.3999C1.475 12.7999 1.025 12.9999 0.6 12.8249C0.2 12.6499 -1.86265e-09 12.1999 0.175 11.7749C0.775 10.3499 3.425 6.4749 9.725 6.4749C9.925 6.4749 10.125 6.2999 10.125 6.0749C10.125 5.8749 9.925 5.6749 9.725 5.6749C6.45 5.6749 4.15 6.6499 2.55 7.7999C2.525 7.6249 2.525 7.4499 2.525 7.2749C2.525 4.6249 4.675 2.4749 7.325 2.4749H9.325C10.9 2.4749 12.275 1.6499 13.05 0.299902C13.225 -9.78243e-05 13.625 0.0249022 13.775 0.324902Z" fill="white"/>
</svg>
