<svg width="16" height="16" viewBox="0 0 16 16" fill="none" xmlns="http://www.w3.org/2000/svg">
<path d="M5 9V10.3125L0.03125 15.25C0 15.1875 0 15.0938 0 15V1C0 0.46875 0.4375 0 1 0H4C4.53125 0 5 0.46875 5 1V2H3.25C3.09375 2 3 2.125 3 2.25V2.75C3 2.90625 3.09375 3 3.25 3H5V5H3.25C3.09375 5 3 5.125 3 5.25V5.75C3 5.90625 3.09375 6 3.25 6H5V8H3.25C3.09375 8 3 8.125 3 8.25V8.75C3 8.90625 3.09375 9 3.25 9H5ZM15 11C15.5312 11 16 11.4688 16 12V15C16 15.5625 15.5312 16 15 16H1C0.90625 16 0.8125 16 0.75 15.9688L5.6875 11H7V12.75C7 12.9062 7.09375 13 7.25 13H7.75C7.875 13 8 12.9062 8 12.75V11H10V12.75C10 12.9062 10.0938 13 10.25 13H10.75C10.875 13 11 12.9062 11 12.75V11H13V12.75C13 12.9062 13.0938 13 13.25 13H13.75C13.875 13 14 12.9062 14 12.75V11H15Z" fill="#F37021"/>
</svg>
