<svg width="21" height="17" viewBox="0 0 21 17" fill="none" xmlns="http://www.w3.org/2000/svg">
<path d="M16.0938 6L15.8125 6.46875C15.7188 6.625 15.5312 6.6875 15.3438 6.625C15 6.5 14.6562 6.28125 14.3438 6.0625C14.2188 5.9375 14.1562 5.71875 14.25 5.5625L14.5312 5.125C14.3125 4.875 14.125 4.5625 14.0312 4.25H13.5C13.3125 4.25 13.1562 4.125 13.125 3.9375C13.0625 3.5625 13.0625 3.15625 13.125 2.78125C13.1562 2.59375 13.3125 2.4375 13.5 2.4375H14.0312C14.125 2.125 14.3125 1.84375 14.5312 1.59375L14.25 1.15625C14.1562 0.96875 14.2188 0.78125 14.3438 0.65625C14.6562 0.40625 15 0.21875 15.3438 0.0625C15.5312 0 15.7188 0.0625 15.8125 0.25L16.0938 0.6875C16.4062 0.625 16.75 0.625 17.0625 0.6875L17.3438 0.25C17.4375 0.0625 17.625 0 17.8125 0.0625C18.1562 0.21875 18.5 0.40625 18.8125 0.65625C18.9375 0.78125 19 0.96875 18.9062 1.15625L18.625 1.59375C18.8438 1.84375 19.0312 2.125 19.125 2.4375H19.6562C19.8438 2.4375 20 2.59375 20.0312 2.78125C20.0938 3.15625 20.0938 3.53125 20.0312 3.9375C20 4.125 19.8438 4.25 19.6562 4.25H19.125C19.0312 4.5625 18.8438 4.875 18.625 5.125L18.9062 5.5625C19 5.71875 18.9375 5.9375 18.8125 6.0625C18.5 6.28125 18.1562 6.5 17.8125 6.625C17.625 6.6875 17.4375 6.625 17.3438 6.46875L17.0625 6C16.75 6.0625 16.4062 6.0625 16.0938 6ZM15.75 4.1875C16.9688 5.09375 18.3438 3.71875 17.4062 2.53125C16.1875 1.59375 14.8438 2.96875 15.75 4.1875ZM12.1562 9L13.2188 9.5C13.5312 9.6875 13.6562 10.0625 13.5312 10.4062C13.25 11.1875 12.7188 11.875 12.1875 12.4688C11.9688 12.75 11.5625 12.8125 11.25 12.6562L10.3438 12.125C9.84375 12.5312 9.25 12.875 8.625 13.0938V14.1562C8.625 14.5312 8.375 14.8438 8 14.9062C7.25 15.0312 6.4375 15.0312 5.65625 14.9062C5.28125 14.8438 5.03125 14.5312 5.03125 14.1562V13.0938C4.375 12.875 3.8125 12.5312 3.3125 12.125L2.40625 12.625C2.09375 12.8125 1.6875 12.75 1.4375 12.4688C0.9375 11.875 0.40625 11.1875 0.125 10.4062C0 10.0938 0.125 9.6875 0.46875 9.5L1.5 9C1.375 8.34375 1.375 7.65625 1.5 7L0.46875 6.46875C0.125 6.28125 0 5.90625 0.125 5.5625C0.40625 4.8125 0.9375 4.125 1.4375 3.5C1.6875 3.25 2.0625 3.15625 2.40625 3.34375L3.3125 3.875C3.8125 3.4375 4.375 3.09375 5.03125 2.875V1.84375C5.03125 1.46875 5.28125 1.15625 5.625 1.09375C6.40625 0.96875 7.21875 0.96875 8 1.09375C8.375 1.15625 8.625 1.46875 8.625 1.84375V2.875C9.25 3.09375 9.84375 3.4375 10.3438 3.875L11.25 3.34375C11.5625 3.15625 11.9688 3.21875 12.1875 3.5C12.7188 4.125 13.25 4.8125 13.5312 5.5625C13.6562 5.90625 13.5312 6.28125 13.2188 6.46875L12.1562 7C12.2812 7.65625 12.2812 8.34375 12.1562 9ZM8.46875 9.65625C10.3125 7.25 7.59375 4.5 5.1875 6.34375C3.3125 8.75 6.0625 11.5 8.46875 9.65625ZM16.0938 15.3438L15.8125 15.8125C15.7188 15.9688 15.5312 16.0312 15.3438 15.9688C15 15.8438 14.6562 15.625 14.3438 15.375C14.2188 15.2812 14.1562 15.0625 14.25 14.9062L14.5312 14.4375C14.3125 14.1875 14.125 13.9062 14.0312 13.5938H13.5C13.3125 13.5938 13.1562 13.4688 13.125 13.2812C13.0625 12.9062 13.0625 12.5 13.125 12.125C13.1562 11.9375 13.3125 11.7812 13.5 11.7812H14.0312C14.125 11.4688 14.3125 11.1875 14.5312 10.9375L14.25 10.5C14.1562 10.3125 14.2188 10.125 14.3438 10C14.6562 9.75 15 9.5625 15.3438 9.40625C15.5312 9.34375 15.7188 9.40625 15.8125 9.59375L16.0938 10.0312C16.4062 9.96875 16.75 9.96875 17.0625 10.0312L17.3438 9.59375C17.4375 9.40625 17.625 9.34375 17.8125 9.40625C18.1562 9.5625 18.5 9.75 18.8125 10C18.9375 10.125 19 10.3125 18.9062 10.5L18.625 10.9375C18.8438 11.1875 19.0312 11.4688 19.125 11.7812H19.6562C19.8438 11.7812 20 11.9375 20.0312 12.125C20.0938 12.5 20.0938 12.875 20.0312 13.2812C20 13.4688 19.8438 13.5938 19.6562 13.5938H19.125C19.0312 13.9062 18.8438 14.1875 18.625 14.4375L18.9062 14.9062C19 15.0625 18.9375 15.2812 18.8125 15.375C18.5 15.625 18.1562 15.8438 17.8125 15.9688C17.625 16.0312 17.4375 15.9688 17.3438 15.8125L17.0625 15.3438C16.75 15.4062 16.4062 15.4062 16.0938 15.3438ZM15.75 13.5C16.9688 14.4375 18.3438 13.0625 17.4062 11.875C16.1875 10.9375 14.8438 12.3125 15.75 13.5Z" fill="#F37021"/>
</svg>
