<svg width="16" height="16" viewBox="0 0 16 16" fill="none" xmlns="http://www.w3.org/2000/svg">
<path d="M13 1C13.5304 1 14.0391 1.21071 14.4142 1.58579C14.7893 1.96086 15 2.46957 15 3V9.25C15 9.44891 14.921 9.63968 14.7803 9.78033C14.6397 9.92098 14.4489 10 14.25 10C14.0511 10 13.8603 9.92098 13.7197 9.78033C13.579 9.63968 13.5 9.44891 13.5 9.25V3C13.5 2.86739 13.4473 2.74021 13.3536 2.64645C13.2598 2.55268 13.1326 2.5 13 2.5H3C2.86739 2.5 2.74021 2.55268 2.64645 2.64645C2.55268 2.74021 2.5 2.86739 2.5 3V13C2.5 13.1326 2.55268 13.2598 2.64645 13.3536C2.74021 13.4473 2.86739 13.5 3 13.5H8.25C8.44891 13.5 8.63968 13.579 8.78033 13.7197C8.92098 13.8603 9 14.0511 9 14.25C9 14.4489 8.92098 14.6397 8.78033 14.7803C8.63968 14.921 8.44891 15 8.25 15H3C2.46957 15 1.96086 14.7893 1.58579 14.4142C1.21071 14.0391 1 13.5304 1 13V3C1 2.46957 1.21071 1.96086 1.58579 1.58579C1.96086 1.21071 2.46957 1 3 1H13ZM14.22 11.22C14.2887 11.1463 14.3715 11.0872 14.4635 11.0462C14.5555 11.0052 14.6548 10.9832 14.7555 10.9814C14.8562 10.9796 14.9562 10.9982 15.0496 11.0359C15.143 11.0736 15.2278 11.1297 15.299 11.201C15.3703 11.2722 15.4264 11.357 15.4641 11.4504C15.5018 11.5438 15.5204 11.6438 15.5186 11.7445C15.5168 11.8452 15.4948 11.9445 15.4538 12.0365C15.4128 12.1285 15.3537 12.2113 15.28 12.28L12.78 14.78C12.6575 14.9026 12.4963 14.9789 12.3238 14.996C12.1513 15.0132 11.9783 14.97 11.834 14.874L11.72 14.78L10.72 13.78L10.668 13.724C10.5489 13.5802 10.4877 13.3971 10.4965 13.2105C10.5052 13.024 10.5833 12.8474 10.7153 12.7153C10.8474 12.5833 11.024 12.5052 11.2105 12.4965C11.3971 12.4877 11.5802 12.5489 11.724 12.668L11.78 12.72L12.25 13.19L14.22 11.22ZM8.327 10.504C8.51153 10.5231 8.68242 10.61 8.80665 10.7478C8.93088 10.8855 8.99964 11.0645 8.99964 11.25C8.99964 11.4355 8.93088 11.6145 8.80665 11.7522C8.68242 11.89 8.51153 11.9769 8.327 11.996L8.25 12H4.75C4.55109 12 4.36032 11.921 4.21967 11.7803C4.07902 11.6397 4 11.4489 4 11.25C4 11.0511 4.07902 10.8603 4.21967 10.7197C4.36032 10.579 4.55109 10.5 4.75 10.5H8.25L8.327 10.504ZM11.25 7.25C11.4489 7.25 11.6397 7.32902 11.7803 7.46967C11.921 7.61032 12 7.80109 12 8C12 8.19891 11.921 8.38968 11.7803 8.53033C11.6397 8.67098 11.4489 8.75 11.25 8.75H4.75C4.55109 8.75 4.36032 8.67098 4.21967 8.53033C4.07902 8.38968 4 8.19891 4 8C4 7.80109 4.07902 7.61032 4.21967 7.46967C4.36032 7.32902 4.55109 7.25 4.75 7.25H11.25ZM11.25 4C11.4489 4 11.6397 4.07902 11.7803 4.21967C11.921 4.36032 12 4.55109 12 4.75C12 4.94891 11.921 5.13968 11.7803 5.28033C11.6397 5.42098 11.4489 5.5 11.25 5.5H4.75C4.55109 5.5 4.36032 5.42098 4.21967 5.28033C4.07902 5.13968 4 4.94891 4 4.75C4 4.55109 4.07902 4.36032 4.21967 4.21967C4.36032 4.07902 4.55109 4 4.75 4H11.25Z" fill="black"/>
</svg>
